<svg width="3471" height="1113" viewBox="0 0 3471 1113" fill="none" xmlns="http://www.w3.org/2000/svg">
<path d="M0 36.709C37.3208 40.8272 74.6477 44.9453 111.969 36.709C149.289 28.4727 186.61 7.88202 223.937 7.62007C261.258 7.35812 298.579 27.4249 335.906 36.709C373.226 45.9931 410.547 44.4823 447.868 36.709C485.195 28.9357 522.516 14.8877 559.837 7.62007C597.163 0.352403 634.484 -0.141043 671.805 7.62007C709.132 15.3812 746.453 31.4029 783.774 36.709C821.094 42.0151 858.421 36.6115 895.742 36.709C933.063 36.8065 970.39 42.3989 1007.71 36.709C1045.03 31.0192 1082.35 14.0349 1119.68 7.62007C1157 1.20527 1194.32 5.35387 1231.65 7.62007C1268.97 9.88627 1306.29 10.2761 1343.61 7.62007C1380.94 4.96399 1418.26 -0.73196 1455.58 7.62007C1492.91 15.9721 1530.23 38.3782 1567.55 36.709C1604.87 35.0398 1642.19 9.30144 1679.52 7.62007C1716.84 5.9387 1754.16 28.3143 1791.48 36.709C1828.81 45.1037 1866.13 39.5174 1903.45 36.709C1940.77 33.9006 1978.09 33.8702 2015.42 36.709C2052.74 39.5479 2090.06 45.2499 2127.39 36.709C2164.71 28.1681 2202.03 5.38433 2239.35 7.62007C2276.68 9.85581 2314 37.1233 2351.32 36.709C2388.65 36.2948 2425.97 8.2049 2463.29 7.62007C2500.61 7.03525 2537.94 33.9555 2575.26 36.709C2612.58 39.4626 2649.91 18.0494 2687.23 7.62007C2724.55 -2.80931 2761.87 -2.26713 2799.19 7.62007C2836.52 17.5073 2873.84 36.7334 2911.16 36.709C2948.48 36.6846 2985.81 17.4159 3023.13 7.62007C3060.45 -2.17575 3097.77 -2.50471 3135.09 7.62007C3172.42 17.7449 3209.74 38.3173 3247.06 36.709C3284.39 35.1007 3321.71 11.3179 3359.03 7.62007C3396.35 3.92227 3433.68 20.3156 3471 36.709V1113C3433.68 1113 3396.35 1113 3359.03 1113C3321.71 1113 3284.39 1113 3247.06 1113C3209.74 1113 3172.42 1113 3135.09 1113C3097.77 1113 3060.45 1113 3023.13 1113C2985.81 1113 2948.48 1113 2911.16 1113C2873.84 1113 2836.52 1113 2799.19 1113C2761.87 1113 2724.55 1113 2687.23 1113C2649.91 1113 2612.58 1113 2575.26 1113C2537.94 1113 2500.61 1113 2463.29 1113C2425.97 1113 2388.65 1113 2351.32 1113C2314 1113 2276.68 1113 2239.35 1113C2202.03 1113 2164.71 1113 2127.39 1113C2090.06 1113 2052.74 1113 2015.42 1113C1978.09 1113 1940.77 1113 1903.45 1113C1866.13 1113 1828.81 1113 1791.48 1113C1754.16 1113 1716.84 1113 1679.52 1113C1642.19 1113 1604.87 1113 1567.55 1113C1530.23 1113 1492.91 1113 1455.58 1113C1418.26 1113 1380.94 1113 1343.61 1113C1306.29 1113 1268.97 1113 1231.65 1113C1194.32 1113 1157 1113 1119.68 1113C1082.35 1113 1045.03 1113 1007.71 1113C970.39 1113 933.063 1113 895.742 1113C858.421 1113 821.094 1113 783.774 1113C746.453 1113 709.132 1113 671.805 1113C634.484 1113 597.163 1113 559.837 1113C522.516 1113 485.195 1113 447.868 1113C410.547 1113 373.226 1113 335.906 1113C298.579 1113 261.258 1113 223.937 1113C186.61 1113 149.289 1113 111.969 1113C74.6477 1113 37.3208 1113 0 1113V36.709Z" fill="#0476A8"/>
</svg>




