<svg width="3471" height="1086" viewBox="0 0 3471 1086" fill="none" xmlns="http://www.w3.org/2000/svg">
<path d="M0 10.0573C37.3208 35.1114 74.6477 60.1654 111.969 53.6796C149.289 47.1877 186.61 9.15597 223.937 10.0573C261.258 10.9586 298.579 50.7808 335.906 53.6796C373.226 56.5724 410.547 22.5295 447.868 10.0573C485.195 -2.41494 522.516 6.67127 559.837 10.0573C597.163 13.4433 634.484 11.1169 671.805 10.0573C709.132 8.99763 746.453 9.20469 783.774 10.0573C821.094 10.9099 858.421 12.4141 895.742 10.0573C933.063 7.70047 970.39 1.48263 1007.71 10.0573C1045.03 18.6319 1082.35 41.993 1119.68 53.6796C1157 65.3602 1194.32 65.3663 1231.65 53.6796C1268.97 41.9869 1306.29 18.6076 1343.61 10.0573C1380.94 1.50699 1418.26 7.77964 1455.58 10.0573C1492.91 12.3349 1530.23 10.6054 1567.55 10.0573C1604.87 9.50919 1642.19 10.1365 1679.52 10.0573C1716.84 9.97811 1754.16 9.20469 1791.48 10.0573C1828.81 10.9099 1866.13 13.4007 1903.45 10.0573C1940.77 6.7139 1978.09 -2.45757 2015.42 10.0573C2052.74 22.5721 2090.06 56.7612 2127.39 53.6796C2164.71 50.592 2202.03 10.2217 2239.35 10.0573C2276.68 9.89285 2314 49.9282 2351.32 53.6796C2388.65 57.425 2425.97 24.8802 2463.29 10.0573C2500.61 -4.76567 2537.94 -1.86076 2575.26 10.0573C2612.58 21.9753 2649.91 42.9004 2687.23 53.6796C2724.55 64.4528 2761.87 65.0739 2799.19 53.6796C2836.52 42.2792 2873.84 18.8512 2911.16 10.0573C2948.48 1.26339 2985.81 7.09757 3023.13 10.0573C3060.45 13.017 3097.77 13.0962 3135.09 10.0573C3172.42 7.0184 3209.74 0.849272 3247.06 10.0573C3284.39 19.2653 3321.71 43.8444 3359.03 53.6796C3396.35 63.5088 3433.68 58.5942 3471 53.6796V1086C3433.68 1086 3396.35 1086 3359.03 1086C3321.71 1086 3284.39 1086 3247.06 1086C3209.74 1086 3172.42 1086 3135.09 1086C3097.77 1086 3060.45 1086 3023.13 1086C2985.81 1086 2948.48 1086 2911.16 1086C2873.84 1086 2836.52 1086 2799.19 1086C2761.87 1086 2724.55 1086 2687.23 1086C2649.91 1086 2612.58 1086 2575.26 1086C2537.94 1086 2500.61 1086 2463.29 1086C2425.97 1086 2388.65 1086 2351.32 1086C2314 1086 2276.68 1086 2239.35 1086C2202.03 1086 2164.71 1086 2127.39 1086C2090.06 1086 2052.74 1086 2015.42 1086C1978.09 1086 1940.77 1086 1903.45 1086C1866.13 1086 1828.81 1086 1791.48 1086C1754.16 1086 1716.84 1086 1679.52 1086C1642.19 1086 1604.87 1086 1567.55 1086C1530.23 1086 1492.91 1086 1455.58 1086C1418.26 1086 1380.94 1086 1343.61 1086C1306.29 1086 1268.97 1086 1231.65 1086C1194.32 1086 1157 1086 1119.68 1086C1082.35 1086 1045.03 1086 1007.71 1086C970.39 1086 933.063 1086 895.742 1086C858.421 1086 821.094 1086 783.774 1086C746.453 1086 709.132 1086 671.805 1086C634.484 1086 597.163 1086 559.837 1086C522.516 1086 485.195 1086 447.868 1086C410.547 1086 373.226 1086 335.906 1086C298.579 1086 261.258 1086 223.937 1086C186.61 1086 149.289 1086 111.969 1086C74.6477 1086 37.3208 1086 0 1086V10.0573Z" fill=" #009BC0"/>
</svg>
