<svg width="3471" height="1041" viewBox="0 0 3471 1041" fill="none" xmlns="http://www.w3.org/2000/svg">
<path d="M0 52.0086C37.3208 56.6201 74.6477 61.2315 111.969 52.0086C149.289 42.7858 186.61 19.7286 223.937 8.37973C261.258 -2.97525 298.579 -2.60974 335.906 8.37973C373.226 19.3631 410.547 40.9826 447.868 52.0086C485.195 63.0347 522.516 63.4672 559.837 52.0086C597.163 40.5501 634.484 17.2066 671.805 8.37973C709.132 -0.453273 746.453 5.22421 783.774 8.37973C821.094 11.5291 858.421 12.1444 895.742 8.37973C933.063 4.60895 970.39 -3.54178 1007.71 8.37973C1045.03 20.2951 1082.35 52.2889 1119.68 52.0086C1157 51.7284 1194.32 19.1743 1231.65 8.37973C1268.97 -2.4209 1306.29 8.5442 1343.61 8.37973C1380.94 8.20916 1418.26 -3.09099 1455.58 8.37973C1492.91 19.8444 1530.23 54.0798 1567.55 52.0086C1604.87 49.9375 1642.19 11.5657 1679.52 8.37973C1716.84 5.18766 1754.16 37.1814 1791.48 52.0086C1828.81 66.8359 1866.13 64.4967 1903.45 52.0086C1940.77 39.5206 1978.09 16.8716 2015.42 8.37973C2052.74 -0.118228 2090.06 5.5288 2127.39 8.37973C2164.71 11.2246 2202.03 11.2672 2239.35 8.37973C2276.68 5.48616 2314 -0.331438 2351.32 8.37973C2388.65 17.0848 2425.97 40.3186 2463.29 52.0086C2500.61 63.6987 2537.94 63.851 2575.26 52.0086C2612.58 40.1663 2649.91 16.3355 2687.23 8.37973C2724.55 0.417843 2761.87 8.33099 2799.19 8.37973C2836.52 8.42237 2873.84 0.606687 2911.16 8.37973C2948.48 16.1467 2985.81 39.5084 3023.13 52.0086C3060.45 64.5089 3097.77 66.1536 3135.09 52.0086C3172.42 37.8637 3209.74 7.92285 3247.06 8.37973C3284.39 8.83051 3321.71 39.6729 3359.03 52.0086C3396.35 64.3444 3433.68 58.1796 3471 52.0086V1041C3433.68 1041 3396.35 1041 3359.03 1041C3321.71 1041 3284.39 1041 3247.06 1041C3209.74 1041 3172.42 1041 3135.09 1041C3097.77 1041 3060.45 1041 3023.13 1041C2985.81 1041 2948.48 1041 2911.16 1041C2873.84 1041 2836.52 1041 2799.19 1041C2761.87 1041 2724.55 1041 2687.23 1041C2649.91 1041 2612.58 1041 2575.26 1041C2537.94 1041 2500.61 1041 2463.29 1041C2425.97 1041 2388.65 1041 2351.32 1041C2314 1041 2276.68 1041 2239.35 1041C2202.03 1041 2164.71 1041 2127.39 1041C2090.06 1041 2052.74 1041 2015.42 1041C1978.09 1041 1940.77 1041 1903.45 1041C1866.13 1041 1828.81 1041 1791.48 1041C1754.16 1041 1716.84 1041 1679.52 1041C1642.19 1041 1604.87 1041 1567.55 1041C1530.23 1041 1492.91 1041 1455.58 1041C1418.26 1041 1380.94 1041 1343.61 1041C1306.29 1041 1268.97 1041 1231.65 1041C1194.32 1041 1157 1041 1119.68 1041C1082.35 1041 1045.03 1041 1007.71 1041C970.39 1041 933.063 1041 895.742 1041C858.421 1041 821.094 1041 783.774 1041C746.453 1041 709.132 1041 671.805 1041C634.484 1041 597.163 1041 559.837 1041C522.516 1041 485.195 1041 447.868 1041C410.547 1041 373.226 1041 335.906 1041C298.579 1041 261.258 1041 223.937 1041C186.61 1041 149.289 1041 111.969 1041C74.6477 1041 37.3208 1041 0 1041V52.0086Z" fill=" #2EB9D3"/>
</svg>


