 <svg class="wave-block" width="3471" height="588" viewBox="0 0 3471 588" fill="none" xmlns="http://www.w3.org/2000/svg">
                <path d="M0 86.8727C192.838 83.7685 385.662 80.6717 578.5 60.1609C771.338 39.65 964.162 1.73978 1157 0.05928C1349.84 -1.62122 1542.66 32.928 1735.5 40.127C1928.34 47.326 2121.16 27.1674 2314 26.7711C2506.84 26.3748 2699.66 45.7409 2892.5 66.8388C3085.34 87.9368 3278.16 110.781 3471 133.618V587.719C3278.16 587.719 3085.34 587.719 2892.5 587.719C2699.66 587.719 2506.84 587.719 2314 587.719C2121.16 587.719 1928.34 587.719 1735.5 587.719C1542.66 587.719 1349.84 587.719 1157 587.719C964.162 587.719 771.338 587.719 578.5 587.719C385.662 587.719 192.838 587.719 0 587.719V86.8727Z" fill="#0476A8"/>
            </svg>