<svg class="wave-block" width="3471" height="556" viewBox="0 0 3471 556" fill="none" xmlns="http://www.w3.org/2000/svg">
                <path d="M0 8.1289C192.838 11.4092 385.662 14.6894 578.5 41.5187C771.338 68.3479 964.162 118.711 1157 141.688C1349.84 164.665 1542.66 160.24 1735.5 148.366C1928.34 136.492 2121.16 117.17 2314 81.5864C2506.84 46.0024 2699.66 -5.85811 2892.5 1.45095C3085.34 8.76001 3278.16 75.224 3471 141.688V555.721C3278.16 555.721 3085.34 555.721 2892.5 555.721C2699.66 555.721 2506.84 555.721 2314 555.721C2121.16 555.721 1928.34 555.721 1735.5 555.721C1542.66 555.721 1349.84 555.721 1157 555.721C964.162 555.721 771.338 555.721 578.5 555.721C385.662 555.721 192.838 555.721 0 555.721V8.1289Z" fill="#009BC0"/>
            </svg>