<svg class="wave-block" width="3471" height="491" viewBox="0 0 3471 491" fill="none" xmlns="http://www.w3.org/2000/svg">
                <path d="M0 103.272C192.838 76.9053 385.662 50.5383 578.5 29.8146C771.338 9.09095 964.162 -5.98949 1157 3.1028C1349.84 12.1951 1542.66 45.4675 1735.5 76.5604C1928.34 107.653 2121.16 136.559 2314 129.984C2506.84 123.409 2699.66 81.3597 2892.5 63.2044C3085.34 45.0492 3278.16 50.7878 3471 56.5265V490.594C3278.16 490.594 3085.34 490.594 2892.5 490.594C2699.66 490.594 2506.84 490.594 2314 490.594C2121.16 490.594 1928.34 490.594 1735.5 490.594C1542.66 490.594 1349.84 490.594 1157 490.594C964.162 490.594 771.338 490.594 578.5 490.594C385.662 490.594 192.838 490.594 0 490.594V103.272Z" fill="#2EB9D3"/>
            </svg>